<svg xmlns="http://www.w3.org/2000/svg" version="1.1" xmlns:xlink="http://www.w3.org/1999/xlink" xmlns:svgjs="http://svgjs.dev/svgjs" width="1440" height="560" preserveAspectRatio="none" viewBox="0 0 1440 560"><g mask="url(&quot;#SvgjsMask1004&quot;)" fill="none"><rect width="1440" height="560" x="0" y="0" fill="rgba(81, 46, 95, 1)"></rect><path d="M0,346.372C69.288,343.329,147.521,356.95,201.083,312.891C254.069,269.305,251.524,189.508,270.757,123.65C287.071,67.784,314.626,13.551,305.274,-43.892C296,-100.854,254.195,-144.095,219.64,-190.319C182.349,-240.202,148.846,-292.828,95.344,-324.711C31.223,-362.922,-40.499,-400.39,-114.318,-389.331C-191.096,-377.829,-266.583,-331.877,-305.443,-264.668C-342.867,-199.942,-318.479,-119.647,-313.373,-45.056C-309.289,14.604,-294.071,69.471,-278.618,127.24C-259.787,197.641,-270.046,286.016,-212.764,331.068C-155.719,375.934,-72.505,349.557,0,346.372" fill="#41254c"></path><path d="M1440 1063.82C1533.032 1058.561 1604.119 987.569 1684.597 940.601 1769.189 891.232 1888.816 872.463 1924.3029999999999 781.174 1959.951 689.47 1869.036 597.712 1855.789 500.219 1842.3890000000001 401.603 1907.768 286.202 1846.402 207.851 1785.404 129.97000000000003 1664.647 139.50099999999998 1566.141 130.40300000000002 1482.978 122.72199999999998 1403.093 137.95999999999998 1322.389 159.454 1239.649 181.49099999999999 1145.724 191.72000000000003 1090.436 257.101 1035.289 322.31600000000003 1047.505 417.313 1033.143 501.503 1018.3389999999999 588.287 978.996 674.568 1004.867 758.719 1032.057 847.1600000000001 1101.203 916.177 1176.962 969.296 1254.824 1023.89 1345.057 1069.187 1440 1063.82" fill="#613772"></path></g><defs><mask id="SvgjsMask1004"><rect width="1440" height="560" fill="#ffffff"></rect></mask></defs></svg>